
<svg xmlns="http://www.w3.org/2000/svg" xmlns:xlink="http://www.w3.org/1999/xlink" viewBox="0 0 1087 679" width="1087" height="679" fill="none">
  <g opacity="100%">
    <rect x="0" y="0" width="1087" height="679" fill="rgba(50,50,50,0.8)" rx="24" filter="url(#filter_dshadow_0_0_0_00000014)"></rect>
  </g>
  <g opacity="100%">
    <rect x="39" y="624" width="1009" height="2" fill="#444" rx="1"></rect>
  </g>
  <g opacity="100%">
    <rect x="447" y="619" width="12" height="12" fill="#323232" rx="6" filter="url(#filter_dshadow_4_2_2_ffffff1a)"></rect>
  </g>
  <svg xmlns="http://www.w3.org/2000/svg" viewBox="0 0 576 512" width="18" height="18" fill="#fff" x="998" y="583" opacity="100%">
    <path d="M301.2 34.85c-11.5-5.188-25.02-3.122-34.44 5.253L131.8 160H48c-26.51 0-48 21.49-48 47.1v95.1c0 26.51 21.49 47.1 48 47.1h83.84l134.9 119.9c5.984 5.312 13.58 8.094 21.26 8.094c4.438 0 8.972-.9375 13.17-2.844c11.5-5.156 18.82-16.56 18.82-29.16V64C319.1 51.41 312.7 40 301.2 34.85zM513.9 255.1l47.03-47.03c9.375-9.375 9.375-24.56 0-33.94s-24.56-9.375-33.94 0L480 222.1L432.1 175c-9.375-9.375-24.56-9.375-33.94 0s-9.375 24.56 0 33.94l47.03 47.03l-47.03 47.03c-9.375 9.375-9.375 24.56 0 33.94c9.373 9.373 24.56 9.381 33.94 0L480 289.9l47.03 47.03c9.373 9.373 24.56 9.381 33.94 0c9.375-9.375 9.375-24.56 0-33.94L513.9 255.1z"></path>
  </svg>
  <svg xmlns="http://www.w3.org/2000/svg" viewBox="0 0 576 512" width="18" height="18" fill="#fff" x="1031" y="583" opacity="100%">
    <path d="M192 352C138.1 352 96 309 96 256C96 202.1 138.1 160 192 160C245 160 288 202.1 288 256C288 309 245 352 192 352zM384 448H192C85.96 448 0 362 0 256C0 149.1 85.96 64 192 64H384C490 64 576 149.1 576 256C576 362 490 448 384 448zM384 128H192C121.3 128 64 185.3 64 256C64 326.7 121.3 384 192 384H384C454.7 384 512 326.7 512 256C512 185.3 454.7 128 384 128z"></path>
  </svg>
  <g opacity="100%" mask="url(#mask_lkqcysnktc)">
    <text x="97" y="66" font-family="Source Sans Pro" font-size="32" fill="#fff" letter-spacing="0" font-weight="normal" font-style="normal">Content unlocked</text>
    <defs>
      <mask id="mask_lkqcysnktc">
        <rect x="97" y="34" width="423" height="38" fill="white"></rect>
      </mask>
    </defs>
  </g>
  <g opacity="100%" mask="url(#mask_fx6cx0hkec)">
    <text x="36" y="644.5" font-family="Source Sans Pro" font-size="12" fill="#fff" letter-spacing="0" font-weight="normal" font-style="normal">Verify</text>
    <text x="36" y="660.5" font-family="Source Sans Pro" font-size="12" fill="#fff" letter-spacing="0" font-weight="normal" font-style="normal">Age</text>
    <defs>
      <mask id="mask_fx6cx0hkec">
        <rect x="36" y="632" width="39" height="12" fill="white"></rect>
      </mask>
    </defs>
  </g>
  <g opacity="100%" mask="url(#mask_o8erjerbtr)">
    <text x="1011" y="644.5" font-family="Source Sans Pro" font-size="12" fill="#fff" letter-spacing="0" font-weight="normal" font-style="normal">Restric</text>
    <text x="1011" y="660.5" font-family="Source Sans Pro" font-size="12" fill="#fff" letter-spacing="0" font-weight="normal" font-style="normal">ted</text>
    <text x="1011" y="676.5" font-family="Source Sans Pro" font-size="12" fill="#fff" letter-spacing="0" font-weight="normal" font-style="normal">Access</text>
    <defs>
      <mask id="mask_o8erjerbtr">
        <rect x="1011" y="632" width="38" height="12" fill="white"></rect>
      </mask>
    </defs>
  </g>
  <svg xmlns="http://www.w3.org/2000/svg" viewBox="0 0 512 512" width="29" height="29" fill="#fff" x="602" y="565" opacity="100%">
    <path d="M512 96.03v319.9c0 17.67-14.33 31.1-31.1 31.1C462.3 447.1 448 433.6 448 415.1V284.1l-171.5 156.5C255.9 457.7 224 443.3 224 415.1V284.1l-171.5 156.5C31.88 457.7 0 443.3 0 415.1V96.03c0-27.37 31.88-41.74 52.5-24.62L224 226.8V96.03c0-27.37 31.88-41.74 52.5-24.62L448 226.8V96.03c0-17.67 14.33-31.1 31.1-31.1C497.7 64.03 512 78.36 512 96.03z"></path>
  </svg>
  <svg xmlns="http://www.w3.org/2000/svg" viewBox="0 0 640 512" width="29" height="29" fill="#fff" x="479" y="565" opacity="100%">
    <path d="M150.7 92.77C195 58.27 251.8 32 320 32C400.8 32 465.5 68.84 512.6 112.6C559.4 156 590.7 207.1 605.5 243.7C608.8 251.6 608.8 260.4 605.5 268.3C592.1 300.6 565.2 346.1 525.6 386.7L630.8 469.1C641.2 477.3 643.1 492.4 634.9 502.8C626.7 513.2 611.6 515.1 601.2 506.9L9.196 42.89C-1.236 34.71-3.065 19.63 5.112 9.196C13.29-1.236 28.37-3.065 38.81 5.112L150.7 92.77zM223.1 149.5L313.4 220.3C317.6 211.8 320 202.2 320 191.1C320 180.5 316.1 169.7 311.6 160.4C314.4 160.1 317.2 159.1 320 159.1C373 159.1 416 202.1 416 255.1C416 269.7 413.1 282.7 407.1 294.5L446.6 324.7C457.7 304.3 464 280.9 464 255.1C464 176.5 399.5 111.1 320 111.1C282.7 111.1 248.6 126.2 223.1 149.5zM320 480C239.2 480 174.5 443.2 127.4 399.4C80.62 355.1 49.34 304 34.46 268.3C31.18 260.4 31.18 251.6 34.46 243.7C44 220.8 60.29 191.2 83.09 161.5L177.4 235.8C176.5 242.4 176 249.1 176 255.1C176 335.5 240.5 400 320 400C338.7 400 356.6 396.4 373 389.9L446.2 447.5C409.9 467.1 367.8 480 320 480H320z"></path>
  </svg>
  <svg xmlns="http://www.w3.org/2000/svg" viewBox="0 0 512 512" width="41" height="41" fill="#fff" x="534" y="559" opacity="100%">
    <path d="M512 256C512 397.4 397.4 512 256 512C114.6 512 0 397.4 0 256C0 114.6 114.6 0 256 0C397.4 0 512 114.6 512 256zM176 168V344C176 352.7 180.7 360.7 188.3 364.9C195.8 369.2 205.1 369 212.5 364.5L356.5 276.5C363.6 272.1 368 264.4 368 256C368 247.6 363.6 239.9 356.5 235.5L212.5 147.5C205.1 142.1 195.8 142.8 188.3 147.1C180.7 151.3 176 159.3 176 168V168z"></path>
  </svg>
  <svg xmlns="http://www.w3.org/2000/svg" height="40" width="40" viewBox="0 0 24 24" fill="#fff" x="1016" y="26" opacity="100%">
    <path d="M0 0h24v24H0z" fill="none"></path>
    <path d="M12 2C6.47 2 2 6.47 2 12s4.47 10 10 10 10-4.47 10-10S17.53 2 12 2zm5 13.59L15.59 17 12 13.41 8.41 17 7 15.59 10.59 12 7 8.41 8.41 7 12 10.59 15.59 7 17 8.41 13.41 12 17 15.59z"></path>
  </svg>
  <defs>
    <filter id="filter_dshadow_0_0_0_00000014" color-interpolation-filters="sRGB" filterUnits="userSpaceOnUse">
      <feFlood flood-opacity="0" result="bg-fix"></feFlood>
      <feColorMatrix in="SourceAlpha" type="matrix" values="0 0 0 0 0 0 0 0 0 0 0 0 0 0 0 0 0 0 127 0" result="alpha"></feColorMatrix>
      <feOffset dx="0" dy="0"></feOffset>
      <feGaussianBlur stdDeviation="0"></feGaussianBlur>
      <feComposite in2="alpha" operator="out"></feComposite>
      <feColorMatrix type="matrix" values="0 0 0 0 0 0 0 0 0 0 0 0 0 0 0 0 0 0 0.08 0"></feColorMatrix>
      <feBlend mode="normal" in2="bg-fix" result="bg-fix-filter_dshadow_0_0_0_00000014"></feBlend>
      <feBlend in="SourceGraphic" in2="bg-fix-filter_dshadow_0_0_0_00000014" result="shape"></feBlend>
    </filter>
    <filter id="filter_dshadow_10_0_2_0000001a" color-interpolation-filters="sRGB" filterUnits="userSpaceOnUse">
      <feFlood flood-opacity="0" result="bg-fix"></feFlood>
      <feColorMatrix in="SourceAlpha" type="matrix" values="0 0 0 0 0 0 0 0 0 0 0 0 0 0 0 0 0 0 127 0" result="alpha"></feColorMatrix>
      <feOffset dx="0" dy="2"></feOffset>
      <feGaussianBlur stdDeviation="5"></feGaussianBlur>
      <feComposite in2="alpha" operator="out"></feComposite>
      <feColorMatrix type="matrix" values="0 0 0 0 0 0 0 0 0 0 0 0 0 0 0 0 0 0 0.1 0"></feColorMatrix>
      <feBlend mode="normal" in2="bg-fix" result="bg-fix-filter_dshadow_10_0_2_0000001a"></feBlend>
      <feBlend in="SourceGraphic" in2="bg-fix-filter_dshadow_10_0_2_0000001a" result="shape"></feBlend>
    </filter>
    <filter id="filter_dshadow_4_2_2_ffffff1a" color-interpolation-filters="sRGB" filterUnits="userSpaceOnUse">
      <feFlood flood-opacity="0" result="bg-fix"></feFlood>
      <feColorMatrix in="SourceAlpha" type="matrix" values="0 0 0 0 0 0 0 0 0 0 0 0 0 0 0 0 0 0 127 0" result="alpha"></feColorMatrix>
      <feOffset dx="2" dy="2"></feOffset>
      <feGaussianBlur stdDeviation="2"></feGaussianBlur>
      <feComposite in2="alpha" operator="out"></feComposite>
      <feColorMatrix type="matrix" values="0 0 0 0 1 0 0 0 0 1 0 0 0 0 1 0 0 0 0.1 0"></feColorMatrix>
      <feBlend mode="normal" in2="bg-fix" result="bg-fix-filter_dshadow_4_2_2_ffffff1a"></feBlend>
      <feBlend in="SourceGraphic" in2="bg-fix-filter_dshadow_4_2_2_ffffff1a" result="shape"></feBlend>
    </filter>
    <style id="google">@import url(https://fonts.googleapis.com/css2?family=Source+Sans+Pro:ital,wght@0,200;0,300;0,400;0,600;0,700;0,900;1,200;1,300;1,400;1,600;1,700;1,900&amp;display=swap);
</style>
    <style id="brand"></style>
  </defs>
</svg>